<?xml version="1.0" standalone="no"?>
<!DOCTYPE svg PUBLIC "-//W3C//DTD SVG 20010904//EN"
 "http://www.w3.org/TR/2001/REC-SVG-20010904/DTD/svg10.dtd">
<svg version="1.0" xmlns="http://www.w3.org/2000/svg"
 width="260.000000pt" height="260.000000pt" viewBox="0 0 260.000000 260.000000"
 preserveAspectRatio="xMidYMid meet">
<metadata>
Created by potrace 1.11, written by Peter Selinger 2001-2013
</metadata>
<g transform="translate(0.000000,260.000000) scale(0.100000,-0.100000)"
fill="#000000" stroke="none">
<path d="M1685 1986 c-44 -65 -265 -376 -489 -690 -83 -115 -103 -133 -131
-112 -18 13 -18 18 -7 48 7 21 12 90 12 180 0 124 -2 147 -16 152 -9 3 -100 6
-204 6 -158 0 -191 -3 -204 -16 -14 -13 -16 -52 -16 -273 0 -186 3 -260 12
-269 7 -7 40 -12 80 -12 58 0 70 -3 90 -25 23 -24 25 -24 218 -25 107 -1 200
-1 206 -1 6 1 16 12 22 26 10 22 18 25 59 25 l48 0 30 63 c125 256 301 590
316 598 23 12 49 60 49 91 0 13 5 30 10 38 19 29 30 -12 30 -120 0 -134 -4
-150 -40 -150 -37 0 -55 -40 -40 -90 5 -19 10 -47 10 -61 0 -15 9 -38 20 -52
11 -14 20 -39 20 -56 0 -20 11 -43 32 -67 25 -28 30 -39 21 -52 -12 -19 -40
-17 -65 5 -25 22 -38 7 -38 -43 0 -24 -4 -44 -10 -44 -5 0 -10 -5 -10 -12 0
-9 3 -9 12 0 26 26 163 5 183 -28 3 -5 12 -10 18 -10 7 0 1 9 -13 20 -23 17
-25 25 -23 87 2 58 -1 73 -23 104 l-25 36 22 108 c20 99 20 110 6 134 -22 38
-28 391 -8 440 14 33 14 35 -15 57 -16 13 -39 32 -52 43 -12 12 -28 21 -35 21
-7 0 -34 -34 -62 -74z m89 -42 c22 -21 20 -47 -5 -70 -20 -18 -21 -18 -35 1
-17 23 -18 57 -2 73 16 16 23 15 42 -4z m-90 -76 c17 -24 22 -83 8 -92 -14 -8
-57 18 -60 38 -4 21 17 76 29 76 4 0 15 -10 23 -22z m-50 -148 c18 -6 26 -17
26 -33 0 -28 -28 -69 -42 -61 -19 12 -37 68 -27 86 11 21 10 21 43 8z m-73
-77 c14 -38 8 -77 -14 -81 -45 -9 -79 74 -39 97 28 17 42 13 53 -16z m-52
-140 c17 -10 33 -24 36 -31 7 -20 -18 -67 -35 -67 -18 0 -50 60 -50 93 0 27 9
27 49 5z m-79 -65 c36 -79 20 -106 -36 -63 -45 34 -50 49 -30 80 24 36 44 31
66 -17z m-476 6 c22 -21 22 -131 0 -162 -13 -20 -24 -22 -94 -22 -102 0 -110
7 -110 105 0 90 5 94 112 95 57 0 81 -4 92 -16z m451 -138 l40 -34 -17 -36
c-10 -20 -24 -36 -32 -36 -7 0 -26 25 -40 56 -42 88 -21 109 49 50z m-127 -28
c20 -26 54 -118 48 -133 -4 -12 -10 -13 -33 -3 -40 18 -93 58 -93 72 0 20 39
76 54 76 7 0 18 -6 24 -12z"/>
<path d="M1641 999 c-35 -28 -22 -32 14 -3 17 13 26 24 20 24 -5 -1 -21 -10
-34 -21z"/>
<path d="M1930 990 c0 -12 28 -25 36 -17 3 3 -4 10 -15 17 -15 7 -21 7 -21 0z"/>
<path d="M1567 881 c-9 -10 -5 -18 16 -33 36 -26 36 -70 2 -100 -27 -23 -33
-48 -12 -48 32 -1 433 -1 445 0 22 0 13 37 -13 48 -14 7 -31 24 -37 38 -11 23
-10 29 11 45 13 11 29 19 37 19 17 0 19 40 2 41 -7 0 -109 1 -226 2 -170 2
-216 -1 -225 -12z"/>
<path d="M644 857 c-71 -41 -74 -47 -74 -152 0 -92 1 -98 25 -117 14 -11 25
-26 25 -34 0 -12 59 -14 390 -14 l390 0 30 31 c35 38 45 79 37 165 -13 136 -8
134 -451 134 -257 -1 -357 -4 -372 -13z m690 -113 c17 -17 21 -51 7 -72 -6
-10 -74 -13 -321 -12 -172 0 -317 3 -321 6 -5 3 -9 21 -9 40 0 27 5 37 23 44
12 5 153 9 314 9 252 1 294 -1 307 -15z"/>
</g>
</svg>
